<?xml version="1.0" standalone="no"?>
<!DOCTYPE svg PUBLIC "-//W3C//DTD SVG 20010904//EN"
 "http://www.w3.org/TR/2001/REC-SVG-20010904/DTD/svg10.dtd">
<svg version="1.0" xmlns="http://www.w3.org/2000/svg"
 width="1024.000000pt" height="1024.000000pt" viewBox="0 0 1024.000000 1024.000000"
 preserveAspectRatio="xMidYMid meet">

<g transform="translate(0.000000,1024.000000) scale(0.100000,-0.100000)"
fill="#000000" stroke="none">
<path d="M0 5120 l0 -5120 5120 0 5120 0 0 5120 0 5120 -5120 0 -5120 0 0
-5120z m1427 1884 c149 -113 612 -275 1528 -534 364 -103 626 -183 721 -220
94 -38 259 -121 494 -249 102 -56 204 -109 228 -118 39 -15 52 -30 126 -142
249 -380 428 -792 537 -1236 47 -191 42 -197 -50 -65 -21 30 -101 177 -178
325 -158 305 -263 483 -390 664 l-88 125 -215 72 c-259 87 -399 155 -615 299
-326 217 -376 236 -910 345 -483 98 -779 180 -927 256 -166 86 -270 214 -303
371 -14 67 -20 143 -10 143 3 0 26 -16 52 -36z m7373 -84 c-26 -152 -130 -297
-274 -378 -150 -85 -397 -156 -981 -282 -468 -101 -542 -128 -785 -295 -297
-203 -369 -239 -679 -341 -107 -35 -203 -72 -214 -82 -11 -9 -72 -96 -136
-193 -113 -171 -176 -282 -383 -674 -99 -188 -161 -288 -192 -314 -14 -12 -16
-11 -16 6 0 34 58 255 105 403 117 364 261 669 459 974 72 111 79 119 134 143
31 15 176 91 322 171 363 197 399 212 870 348 546 158 604 175 875 259 484
151 700 236 843 334 l57 39 3 -25 c2 -14 -2 -56 -8 -93z m-7180 -574 c25 -7
144 -36 265 -65 222 -51 334 -75 725 -157 118 -25 235 -52 260 -60 74 -25 219
-97 315 -157 147 -91 146 -88 35 -82 -52 3 -266 15 -475 25 -602 32 -686 44
-845 121 -71 35 -101 58 -180 138 -68 68 -106 117 -133 167 -20 40 -37 75 -37
78 0 9 21 7 70 -8z m6974 -38 c-98 -193 -276 -344 -460 -392 -117 -30 -361
-51 -889 -76 -121 -5 -244 -12 -272 -15 -29 -3 -53 -2 -53 2 0 13 179 124 290
180 116 59 131 63 695 188 187 41 417 95 510 119 94 24 178 44 188 45 15 1 14
-5 -9 -51z m-3323 -186 c103 -31 266 -98 287 -117 12 -10 11 -26 -3 -96 -22
-111 -31 -128 -110 -234 -49 -65 -79 -119 -112 -200 -49 -122 -145 -385 -188
-514 -31 -94 -30 -94 -70 24 -44 134 -120 343 -172 475 -37 93 -66 148 -115
215 -36 50 -71 100 -77 113 -10 19 -50 181 -51 205 0 17 265 123 375 150 56
14 147 6 236 -21z m-2766 -427 c253 -13 523 -25 827 -39 84 -3 89 -5 175 -56
149 -90 218 -139 202 -144 -24 -9 -643 -47 -864 -53 -195 -5 -216 -4 -288 16
-95 26 -191 73 -277 137 -73 54 -170 142 -170 156 0 4 24 6 53 3 28 -3 183
-12 342 -20z m5519 -27 c-107 -116 -218 -190 -348 -235 -80 -28 -85 -28 -296
-26 -118 0 -348 11 -510 22 -162 12 -307 21 -322 21 -16 0 -28 4 -28 9 0 10
117 91 218 151 l72 42 293 15 c160 7 429 22 597 32 168 10 320 19 339 20 l34
1 -49 -52z m-3843 -486 c142 -94 234 -149 362 -217 l79 -43 43 -96 44 -96 -39
0 c-37 0 -573 86 -719 116 -166 34 -274 80 -388 165 -68 51 -77 54 -208 79
-60 11 -148 32 -195 46 -85 25 -240 92 -240 103 0 3 213 5 472 3 l473 -3 124
-45 c68 -25 125 -43 127 -41 2 2 -19 25 -46 52 -28 27 -50 53 -50 57 0 20 38
1 161 -80z m2029 82 c0 -3 -24 -30 -52 -61 -60 -63 -61 -63 92 -5 l106 41 471
3 c264 2 469 -1 466 -6 -9 -15 -148 -74 -237 -101 -47 -14 -139 -37 -206 -50
-112 -22 -124 -26 -187 -73 -131 -95 -197 -124 -368 -162 -163 -35 -693 -120
-750 -120 -24 0 -24 0 19 98 l42 97 100 53 c115 62 284 163 399 239 73 48 105
62 105 47z m-4364 -1135 c67 -12 204 -66 204 -80 0 -8 -47 -108 -55 -117 -2
-2 -14 3 -27 11 -82 53 -249 74 -318 39 -43 -21 -66 -65 -54 -101 15 -41 64
-66 205 -102 216 -55 278 -108 279 -237 0 -77 -22 -125 -82 -176 -82 -70 -235
-95 -377 -60 -62 15 -211 80 -211 92 0 6 50 115 56 121 2 2 34 -13 72 -32 170
-89 339 -86 378 8 17 41 6 76 -29 99 -13 9 -79 30 -148 47 -225 55 -286 99
-304 220 -27 184 169 312 411 268z m2196 -15 c74 -22 148 -55 148 -66 0 -7
-47 -107 -55 -116 -1 -1 -33 12 -71 30 -63 30 -77 33 -166 33 -82 0 -101 -3
-125 -21 -34 -26 -50 -75 -35 -109 16 -34 51 -49 192 -85 151 -38 186 -52 229
-93 43 -41 61 -84 61 -147 0 -117 -73 -201 -205 -236 -67 -18 -187 -17 -260 1
-67 18 -205 82 -205 96 0 5 14 36 30 69 l30 60 41 -30 c154 -111 409 -99 409
19 0 66 -18 78 -188 122 -142 37 -206 65 -250 109 -57 59 -68 151 -28 237 35
75 113 125 226 147 41 8 165 -4 222 -20z m4513 4 c54 -13 155 -59 155 -69 0
-5 -12 -33 -27 -61 -16 -29 -29 -54 -29 -56 -1 -1 -23 8 -50 22 -71 36 -134
49 -213 44 -51 -3 -78 -9 -98 -24 -36 -27 -51 -76 -33 -109 14 -26 81 -58 156
-75 27 -6 87 -22 132 -36 160 -48 221 -147 180 -288 -17 -56 -90 -128 -153
-150 -76 -27 -198 -32 -287 -12 -82 18 -218 79 -218 97 0 9 46 108 54 117 2 1
39 -15 82 -37 114 -57 206 -73 288 -50 69 19 102 75 80 134 -10 24 -69 50
-169 73 -226 51 -314 122 -315 250 0 120 94 217 238 242 53 9 166 4 227 -12z
m-5850 -189 c70 -105 128 -189 130 -187 7 7 151 219 202 296 l54 82 85 0 85 0
-57 -82 c-31 -46 -109 -159 -173 -253 l-116 -170 -5 -155 -5 -155 -77 -3 -78
-3 0 154 0 153 -75 109 c-42 61 -115 168 -163 238 -48 70 -93 136 -101 147
-13 19 -11 20 77 20 l90 0 127 -191z m2595 126 l0 -65 -145 0 -145 0 0 -345 0
-345 -80 0 -80 0 0 345 0 345 -145 0 -145 0 0 65 0 65 370 0 370 0 0 -65z
m990 0 l0 -65 -230 0 -230 0 0 -99 0 -99 93 -7 c50 -4 140 -5 200 -3 l107 3 0
-67 0 -68 -200 0 -200 0 0 -105 0 -105 213 -2 c116 -1 223 -2 237 -3 21 -1 25
-6 27 -35 1 -19 0 -50 -3 -68 l-5 -32 -312 2 -312 3 -3 408 -2 407 310 0 310
0 0 -65z m718 -157 c76 -123 147 -238 156 -256 l17 -33 83 133 c45 73 115 188
156 255 l75 123 83 0 82 0 0 -410 0 -411 -77 3 -78 3 0 288 c0 268 -1 287 -16
268 -9 -11 -72 -113 -140 -226 l-124 -205 -41 0 -41 0 -139 225 -139 224 -3
-290 -2 -290 -78 3 -77 3 -3 408 -2 407 84 0 85 0 139 -222z"/>
<path d="M5099 6085 c-3 -2 -30 -11 -60 -20 -48 -14 -50 -15 -13 -10 43 5 120
34 93 35 -9 0 -18 -2 -20 -5z"/>
<path d="M5155 6070 c11 -5 29 -9 40 -9 l20 0 -20 9 c-11 5 -29 9 -40 9 l-20
0 20 -9z"/>
<path d="M5102 5980 c0 -19 2 -27 5 -17 2 9 2 25 0 35 -3 9 -5 1 -5 -18z"/>
<path d="M5112 5870 c0 -19 2 -27 5 -17 2 9 2 25 0 35 -3 9 -5 1 -5 -18z"/>
</g>
</svg>
